# xmcd CD database file
#
# Track frame offsets:
#	182
#	25747
#	31690
#	42952
#	53505
#	66140
#	76457
#	90510
#	101820
#	112060
#	127945
#	150552
#	167845
#	179520
#	202110
#	220977
#
# Disc length: 3173 seconds
#
# Revision: 1
# Processed by: cddbd v1.5PL3 Copyright (c) Steve Scherf et al.
# Submitted via: CDex 1.51
#
DISCID=d30c6310
DTITLE=Eric Clapton - She's So Respectable
DYEAR=1994
DGENRE=Blues
TTITLE0=She's So Respectable
TTITLE1=Choker
TTITLE2=Shake Drive
TTITLE3=Got To Hurry
TTITLE4=Freight Loader
TTITLE5=A Certain Girl
TTITLE6=Dragging My Tail
TTITLE7=For Your Love
TTITLE8=I Wish You Would
TTITLE9=Louise
TTITLE10=Five Long Years
TTITLE11=Early In The Morning
TTITLE12=Pounds And Stomps
TTITLE13=The First Time I Met The Blues
TTITLE14=Stormy Monday Blues
TTITLE15=Big Boss Man
EXTD=YEAR: 1994
EXTT0=
EXTT1=
EXTT2=
EXTT3=
EXTT4=
EXTT5=
EXTT6=
EXTT7=
EXTT8=
EXTT9=
EXTT10=
EXTT11=
EXTT12=
EXTT13=
EXTT14=
EXTT15=
PLAYORDER=
